<svg width="94" height="44" viewBox="0 0 94 44" fill="none" xmlns="http://www.w3.org/2000/svg">
<path d="M14.5156 15.2031H16.748L20.0352 24.5986L23.3223 15.2031H25.5547L20.9316 28H19.1387L14.5156 15.2031ZM13.3115 15.2031H15.5352L15.9395 24.3613V28H13.3115V15.2031ZM24.5352 15.2031H26.7676V28H24.1309V24.3613L24.5352 15.2031ZM31.7422 26.9277L34.2646 18.4902H36.9805L33.1572 29.4326C33.0752 29.6729 32.9639 29.9307 32.8232 30.2061C32.6885 30.4814 32.5039 30.7422 32.2695 30.9883C32.041 31.2402 31.751 31.4453 31.3994 31.6035C31.0537 31.7617 30.6289 31.8408 30.125 31.8408C29.8848 31.8408 29.6885 31.8262 29.5361 31.7969C29.3838 31.7676 29.2021 31.7266 28.9912 31.6738V29.8193C29.0557 29.8193 29.123 29.8193 29.1934 29.8193C29.2637 29.8252 29.3311 29.8281 29.3955 29.8281C29.7295 29.8281 30.002 29.79 30.2129 29.7139C30.4238 29.6377 30.5938 29.5205 30.7227 29.3623C30.8516 29.21 30.9541 29.0107 31.0303 28.7646L31.7422 26.9277ZM30.6875 18.4902L32.7529 25.3809L33.1133 28.0615L31.3906 28.2461L27.9717 18.4902H30.6875ZM50.8584 25.9434V28H44.416V25.9434H50.8584ZM45.2686 15.2031V28H42.6318V15.2031H45.2686ZM51.8076 23.3418V23.1572C51.8076 22.46 51.9072 21.8184 52.1064 21.2324C52.3057 20.6406 52.5957 20.1279 52.9766 19.6943C53.3574 19.2607 53.8262 18.9238 54.3828 18.6836C54.9395 18.4375 55.5781 18.3145 56.2988 18.3145C57.0195 18.3145 57.6611 18.4375 58.2236 18.6836C58.7861 18.9238 59.2578 19.2607 59.6387 19.6943C60.0254 20.1279 60.3184 20.6406 60.5176 21.2324C60.7168 21.8184 60.8164 22.46 60.8164 23.1572V23.3418C60.8164 24.0332 60.7168 24.6748 60.5176 25.2666C60.3184 25.8525 60.0254 26.3652 59.6387 26.8047C59.2578 27.2383 58.7891 27.5752 58.2324 27.8154C57.6758 28.0557 57.0371 28.1758 56.3164 28.1758C55.5957 28.1758 54.9541 28.0557 54.3916 27.8154C53.835 27.5752 53.3633 27.2383 52.9766 26.8047C52.5957 26.3652 52.3057 25.8525 52.1064 25.2666C51.9072 24.6748 51.8076 24.0332 51.8076 23.3418ZM54.3389 23.1572V23.3418C54.3389 23.7402 54.374 24.1123 54.4443 24.458C54.5146 24.8037 54.626 25.1084 54.7783 25.3721C54.9365 25.6299 55.1416 25.832 55.3936 25.9785C55.6455 26.125 55.9531 26.1982 56.3164 26.1982C56.668 26.1982 56.9697 26.125 57.2217 25.9785C57.4736 25.832 57.6758 25.6299 57.8281 25.3721C57.9805 25.1084 58.0918 24.8037 58.1621 24.458C58.2383 24.1123 58.2764 23.7402 58.2764 23.3418V23.1572C58.2764 22.7705 58.2383 22.4072 58.1621 22.0674C58.0918 21.7217 57.9775 21.417 57.8193 21.1533C57.667 20.8838 57.4648 20.6729 57.2129 20.5205C56.9609 20.3682 56.6562 20.292 56.2988 20.292C55.9414 20.292 55.6367 20.3682 55.3848 20.5205C55.1387 20.6729 54.9365 20.8838 54.7783 21.1533C54.626 21.417 54.5146 21.7217 54.4443 22.0674C54.374 22.4072 54.3389 22.7705 54.3389 23.1572ZM68.3926 18.4902H70.6865V27.6836C70.6865 28.5508 70.4932 29.2861 70.1064 29.8896C69.7256 30.499 69.1924 30.959 68.5068 31.2695C67.8213 31.5859 67.0244 31.7441 66.1162 31.7441C65.7178 31.7441 65.2959 31.6914 64.8506 31.5859C64.4111 31.4805 63.9893 31.3164 63.585 31.0938C63.1865 30.8711 62.8525 30.5898 62.583 30.25L63.6992 28.7559C63.9922 29.0957 64.332 29.3594 64.7188 29.5469C65.1055 29.7402 65.5332 29.8369 66.002 29.8369C66.459 29.8369 66.8457 29.752 67.1621 29.582C67.4785 29.418 67.7217 29.1748 67.8916 28.8525C68.0615 28.5361 68.1465 28.1523 68.1465 27.7012V20.6875L68.3926 18.4902ZM61.9941 23.3594V23.1748C61.9941 22.4482 62.082 21.7891 62.2578 21.1973C62.4395 20.5996 62.6943 20.0869 63.0225 19.6592C63.3564 19.2314 63.7607 18.9004 64.2354 18.666C64.71 18.4316 65.2461 18.3145 65.8438 18.3145C66.4766 18.3145 67.0068 18.4316 67.4346 18.666C67.8623 18.9004 68.2139 19.2344 68.4893 19.668C68.7646 20.0957 68.9785 20.6025 69.1309 21.1885C69.2891 21.7686 69.4121 22.4043 69.5 23.0957V23.5C69.4121 24.1621 69.2803 24.7773 69.1045 25.3457C68.9287 25.9141 68.6973 26.4121 68.4102 26.8398C68.123 27.2617 67.7656 27.5898 67.3379 27.8242C66.916 28.0586 66.4121 28.1758 65.8262 28.1758C65.2402 28.1758 64.71 28.0557 64.2354 27.8154C63.7666 27.5752 63.3652 27.2383 63.0312 26.8047C62.6973 26.3711 62.4395 25.8613 62.2578 25.2754C62.082 24.6895 61.9941 24.0508 61.9941 23.3594ZM64.5254 23.1748V23.3594C64.5254 23.752 64.5635 24.1182 64.6396 24.458C64.7158 24.7979 64.833 25.0996 64.9912 25.3633C65.1553 25.6211 65.3574 25.8232 65.5977 25.9697C65.8438 26.1104 66.1338 26.1807 66.4678 26.1807C66.9307 26.1807 67.3086 26.084 67.6016 25.8906C67.8945 25.6914 68.1143 25.4189 68.2607 25.0732C68.4072 24.7275 68.4922 24.3291 68.5156 23.8779V22.7266C68.5039 22.3574 68.4541 22.0264 68.3662 21.7334C68.2783 21.4346 68.1553 21.1797 67.9971 20.9688C67.8389 20.7578 67.6338 20.5938 67.3818 20.4766C67.1299 20.3594 66.8311 20.3008 66.4854 20.3008C66.1514 20.3008 65.8613 20.377 65.6152 20.5293C65.375 20.6758 65.1729 20.8779 65.0088 21.1357C64.8506 21.3936 64.7305 21.6982 64.6484 22.0498C64.5664 22.3955 64.5254 22.7705 64.5254 23.1748ZM72.251 23.3418V23.1572C72.251 22.46 72.3506 21.8184 72.5498 21.2324C72.749 20.6406 73.0391 20.1279 73.4199 19.6943C73.8008 19.2607 74.2695 18.9238 74.8262 18.6836C75.3828 18.4375 76.0215 18.3145 76.7422 18.3145C77.4629 18.3145 78.1045 18.4375 78.667 18.6836C79.2295 18.9238 79.7012 19.2607 80.082 19.6943C80.4688 20.1279 80.7617 20.6406 80.9609 21.2324C81.1602 21.8184 81.2598 22.46 81.2598 23.1572V23.3418C81.2598 24.0332 81.1602 24.6748 80.9609 25.2666C80.7617 25.8525 80.4688 26.3652 80.082 26.8047C79.7012 27.2383 79.2324 27.5752 78.6758 27.8154C78.1191 28.0557 77.4805 28.1758 76.7598 28.1758C76.0391 28.1758 75.3975 28.0557 74.835 27.8154C74.2783 27.5752 73.8066 27.2383 73.4199 26.8047C73.0391 26.3652 72.749 25.8525 72.5498 25.2666C72.3506 24.6748 72.251 24.0332 72.251 23.3418ZM74.7822 23.1572V23.3418C74.7822 23.7402 74.8174 24.1123 74.8877 24.458C74.958 24.8037 75.0693 25.1084 75.2217 25.3721C75.3799 25.6299 75.585 25.832 75.8369 25.9785C76.0889 26.125 76.3965 26.1982 76.7598 26.1982C77.1113 26.1982 77.4131 26.125 77.665 25.9785C77.917 25.832 78.1191 25.6299 78.2715 25.3721C78.4238 25.1084 78.5352 24.8037 78.6055 24.458C78.6816 24.1123 78.7197 23.7402 78.7197 23.3418V23.1572C78.7197 22.7705 78.6816 22.4072 78.6055 22.0674C78.5352 21.7217 78.4209 21.417 78.2627 21.1533C78.1104 20.8838 77.9082 20.6729 77.6562 20.5205C77.4043 20.3682 77.0996 20.292 76.7422 20.292C76.3848 20.292 76.0801 20.3682 75.8281 20.5205C75.582 20.6729 75.3799 20.8838 75.2217 21.1533C75.0693 21.417 74.958 21.7217 74.8877 22.0674C74.8174 22.4072 74.7822 22.7705 74.7822 23.1572Z" fill="white"/>
</svg>
